<svg width="456" height="117" viewBox="0 0 456 117" fill="none" xmlns="http://www.w3.org/2000/svg">
<g clip-path="url(#clip0_2262_553)">
<path d="M89.5736 78.0294C89.5736 80.9905 89.0087 83.7541 87.8809 86.3248C86.751 88.8954 85.2356 91.1356 83.3302 93.0431C81.4226 94.9528 79.1672 96.4521 76.5617 97.5412C73.954 98.6302 71.1735 99.1781 68.2157 99.1781H49.5409C45.338 99.1781 41.3699 98.3796 37.6367 96.7826C33.9013 95.1879 30.6334 93.0054 27.8329 90.2395C25.0325 87.4759 22.8325 84.2221 21.2395 80.4825C19.6443 76.743 18.8467 72.7706 18.8467 68.563V8.27335H28.7679V68.5675C28.7679 71.371 29.3107 74.0415 30.403 76.5722C31.4908 79.1052 32.9708 81.3054 34.8385 83.1752C36.7062 85.045 38.904 86.5266 41.4342 87.6156C43.9621 88.7069 46.6651 89.2525 49.5453 89.2525H68.2202C69.853 89.2525 71.3507 88.9597 72.7133 88.3764C74.0737 87.7931 75.2811 86.9746 76.3313 85.9233C77.3815 84.872 78.199 83.6853 78.7839 82.359C79.3666 81.0348 79.6591 79.5953 79.6591 78.0361V8.27335H89.5803V78.0317L89.5736 78.0294Z" fill="white"/>
<path d="M179.563 8.27316V80.6021C179.563 84.2641 178.823 87.4003 177.345 90.0087C175.865 92.6193 173.96 94.682 171.627 96.2013C169.291 97.7207 166.726 98.6544 163.923 99.0049C161.12 99.3553 158.378 99.1402 155.695 98.3617C153.009 97.5809 150.577 96.2191 148.399 94.2717C146.219 92.3243 144.623 89.7536 143.613 86.5597L123.188 24.5134C122.408 22.1756 121.088 20.5232 119.22 19.5473C117.352 18.5736 115.427 18.2231 113.442 18.4959C111.457 18.7687 109.706 19.6648 108.189 21.1841C106.671 22.7035 105.913 24.7485 105.913 27.3191V99.1801H95.9922V27.3191C95.9922 23.5796 96.7499 20.3857 98.2676 17.7374C99.7852 15.0891 101.728 13.0241 104.103 11.5447C106.476 10.0653 109.104 9.13153 111.982 8.74116C114.86 8.35301 117.66 8.56594 120.385 9.38438C123.108 10.2028 125.581 11.6046 127.796 13.5919C130.012 15.5793 131.667 18.1699 132.757 21.3616L153.067 83.2904C153.845 85.5505 155.147 87.1874 156.977 88.1988C158.805 89.2124 160.655 89.6006 162.523 89.3677C164.391 89.1348 166.043 88.2786 167.484 86.797C168.924 85.3176 169.644 83.2527 169.644 80.6044V8.27316H179.565H179.563Z" fill="white"/>
<path d="M200.22 99.1801H190.299V8.27313H200.22V99.1801Z" fill="white"/>
<path d="M228.318 99.1801C225.598 99.1801 223.034 98.6544 220.628 97.6031C218.22 96.5518 216.122 95.1323 214.334 93.3379C212.546 91.548 211.128 89.4431 210.08 87.0277C209.032 84.6145 208.507 82.0438 208.507 79.3157V37.0162C208.507 33.0438 209.262 29.3042 210.778 25.7998C212.291 22.2953 214.332 19.2389 216.897 16.6261C219.461 14.0178 222.469 11.9728 225.928 10.4912C229.386 9.01175 233.057 8.27094 236.941 8.27094H264.445C267.163 8.27094 269.747 8.7966 272.195 9.84793C274.641 10.8993 276.777 12.341 278.605 14.1708C280.43 16.0029 281.888 18.1433 282.974 20.5986C284.059 23.0517 284.606 25.6423 284.606 28.3682V70.5502C284.606 74.5226 283.847 78.2444 282.333 81.7089C280.818 85.1757 278.76 88.1943 276.156 90.765C273.553 93.3357 270.502 95.3807 267.008 96.9C263.512 98.4193 259.781 99.1779 255.822 99.1779H228.318V99.1801ZM250.009 103.971H282.985V113.903H250.009V103.971ZM218.428 79.3157C218.428 80.6421 218.681 81.9063 219.188 83.1129C219.693 84.3217 220.393 85.373 221.288 86.2669C222.181 87.163 223.231 87.8838 224.439 88.4295C225.644 88.9751 226.949 89.2479 228.349 89.2479H255.895C258.463 89.2479 260.893 88.7622 263.189 87.7862C265.484 86.8125 267.467 85.4906 269.142 83.8138C270.815 82.1392 272.157 80.1541 273.17 77.854C274.18 75.5584 274.688 73.1208 274.688 70.5502V28.3705C274.688 25.5669 273.695 23.1715 271.71 21.1841C269.725 19.1968 267.332 18.2054 264.531 18.2054H236.986C234.418 18.2054 232.005 18.7133 229.75 19.7247C227.492 20.7383 225.529 22.0824 223.856 23.757C222.183 25.4338 220.859 27.4189 219.888 29.7168C218.913 32.0146 218.428 34.45 218.428 37.0206V79.3201V79.3157Z" fill="#FFCE00"/>
<path d="M361.993 78.0292C361.993 80.9903 361.428 83.7539 360.3 86.3246C359.17 88.8952 357.655 91.1354 355.749 93.0429C353.842 94.9526 351.586 96.4519 348.981 97.541C346.373 98.63 343.592 99.1779 340.635 99.1779H321.96C317.757 99.1779 313.789 98.3794 310.056 96.7824C306.32 95.1877 303.052 93.0052 300.252 90.2393C297.451 87.4757 295.251 84.2219 293.658 80.4823C292.063 76.7428 291.266 72.7704 291.266 68.5628V8.27313H301.187V68.5672C301.187 71.3708 301.73 74.0413 302.822 76.572C303.91 79.105 305.39 81.3052 307.257 83.175C309.125 85.0448 311.323 86.5264 313.853 87.6154C316.381 88.7067 319.084 89.2523 321.964 89.2523H340.639C342.272 89.2523 343.77 88.9595 345.132 88.3762C346.493 87.7929 347.7 86.9744 348.75 85.9231C349.8 84.8718 350.618 83.6851 351.203 82.3588C351.786 81.0346 352.078 79.5951 352.078 78.0359V8.27313H361.999V78.0314L361.993 78.0292Z" fill="white"/>
<path d="M370.161 22.0602C371.329 19.3343 372.904 16.9389 374.889 14.8739C376.875 12.8112 379.208 11.1942 381.893 10.0254C384.578 8.85647 387.438 8.27313 390.471 8.27313H437.16V18.2053H390.471C388.836 18.2053 387.281 18.538 385.803 19.199C384.323 19.8622 383.02 20.7583 381.893 21.8872C380.763 23.0184 379.888 24.3403 379.267 25.8597C378.643 27.379 378.332 28.9959 378.332 30.7082V44.9633H437.16V54.8955H378.332V77.7986C378.332 80.9925 379.422 83.6984 381.6 85.9187C383.778 88.1389 386.501 89.2479 389.771 89.2479H437.16V99.1801H389.771C386.813 99.1801 384.033 98.6145 381.425 97.4855C378.818 96.3566 376.542 94.8372 374.597 92.9275C372.649 91.0201 371.134 88.7621 370.044 86.1493C368.954 83.541 368.411 80.7552 368.411 77.7941V30.7038C368.411 27.6651 368.994 24.7839 370.161 22.058V22.0602Z" fill="white"/>
</g>
<defs>
<clipPath id="clip0_2262_553">
<rect width="436" height="116.311" fill="white" transform="translate(10)"/>
</clipPath>
</defs>
</svg>
